<?xml version="1.0" encoding="utf-8"?>
<svg version="1.1" id="Layer_1" xmlns="http://www.w3.org/2000/svg" xmlns:xlink="http://www.w3.org/1999/xlink" x="0px" y="0px"
	 width="24px" height="24px" viewBox="0 0 24 24" style="enable-background:new 0 0 24 24;" xml:space="preserve">
<style type="text/css">
	.st0{fill:#EAE9E6;}
	.st1{fill:#9DABC1;}
</style>
<circle class="st0" cx="12" cy="12" r="12"/>
<path class="st1" d="M12,0C5.37256,0,0,5.37256,0,12c0,6.62738,5.37256,12,12,12s12-5.37262,12-12C24,5.37256,18.62744,0,12,0z
	 M12,1c6.06543,0,11,4.93457,11,11c0,2.68604-0.9707,5.14771-2.57581,7.05988c-0.86487-0.85901-2.62909-1.48193-4.94446-2.28998
	c-0.31805-0.11102-0.64459-0.22479-0.97845-0.34314l-0.03204-1.90149c0.34198-0.29993,1.07111-1.08057,1.13739-2.33588
	c0.17651-0.15466,0.31305-0.4187,0.38892-0.76685c0.11462-0.52356,0.07178-1.20404-0.35382-1.60492
	c0.02002-0.05365,0.04352-0.11414,0.06897-0.18121c0.28992-0.76794,0.83008-2.19794,0.58868-3.30823
	c-0.28333-1.3031-2.13586-1.77808-3.63635-1.78882c-1.29535-0.04633-2.87952,0.30798-3.35016,1.20746
	c-0.4704,0.06049-0.83051,0.26172-1.07294,0.60022c-0.67047,0.9364-0.14502,2.57074,0.13721,3.44855
	c0.01508,0.04779,0.02966,0.0918,0.04236,0.13074c-0.40015,0.39673-0.45795,1.06714-0.31531,1.62885
	c0.08752,0.34509,0.23279,0.60413,0.41437,0.7525c0.10834,1.25232,0.86249,2.0083,1.21411,2.29663l0.03162,1.90186
	c-0.33044,0.12915-0.65387,0.25446-0.96881,0.37628c-2.33447,0.90302-4.10651,1.59283-4.91949,2.50763
	C2.09583,17.43494,1,14.84625,1,12C1,5.93457,5.93457,1,12,1z"/>
</svg>
