<?xml version="1.0" encoding="utf-8"?>
<!-- Generator: Adobe Illustrator 16.0.0, SVG Export Plug-In . SVG Version: 6.00 Build 0)  -->
<!DOCTYPE svg PUBLIC "-//W3C//DTD SVG 1.1//EN" "http://www.w3.org/Graphics/SVG/1.1/DTD/svg11.dtd">
<svg version="1.1" id="Layer_1" xmlns="http://www.w3.org/2000/svg" xmlns:xlink="http://www.w3.org/1999/xlink" x="0px" y="0px"
	 width="40px" height="40px" viewBox="0 0 40 40" enable-background="new 0 0 40 40" xml:space="preserve">
<path fill-rule="evenodd" clip-rule="evenodd" d="M19.255,2.164c1.969,0,3.563,1.71,3.563,3.825c0,2.111-1.594,3.823-3.563,3.823
	c-1.968,0-3.562-1.712-3.562-3.823C15.693,3.874,17.287,2.164,19.255,2.164z"/>
<path fill-rule="evenodd" clip-rule="evenodd" d="M19.255,16.175c1.969,0,3.563,1.714,3.563,3.827c0,2.109-1.594,3.823-3.563,3.823
	c-1.968,0-3.562-1.714-3.562-3.823C15.693,17.889,17.287,16.175,19.255,16.175z"/>
<path fill-rule="evenodd" clip-rule="evenodd" d="M19.255,30.189c1.969,0,3.563,1.713,3.563,3.827c0,2.11-1.594,3.823-3.563,3.823
	c-1.968,0-3.562-1.713-3.562-3.823C15.693,31.902,17.287,30.189,19.255,30.189z"/>
</svg>
